<mxfile host="app.diagrams.net" agent="Mozilla/5.0 (Windows NT 10.0; Win64; x64) AppleWebKit/537.36 (KHTML, like Gecko) Chrome/129.0.0.0 Safari/537.36 Edg/129.0.0.0" version="24.7.17">
  <diagram name="Página-1" id="cZLZCgbs-Qh2R2f3NHX3">
    <mxGraphModel grid="1" page="1" gridSize="10" guides="1" tooltips="1" connect="1" arrows="1" fold="1" pageScale="1" pageWidth="1600" pageHeight="1200" math="0" shadow="0">
      <root>
        <mxCell id="0" />
        <mxCell id="1" parent="0" />
        <mxCell id="5ZYNLyedGt1rYarvoSBz-3" value="JSON" style="text;html=1;align=center;verticalAlign=middle;whiteSpace=wrap;rounded=0;fontStyle=1" vertex="1" parent="1">
          <mxGeometry x="190" y="285" width="60" height="30" as="geometry" />
        </mxCell>
        <mxCell id="5ZYNLyedGt1rYarvoSBz-5" value="&lt;div&gt;&lt;b&gt;1 - Nifi&lt;/b&gt;&lt;/div&gt;" style="rounded=0;whiteSpace=wrap;html=1;fillColor=#fff2cc;strokeColor=#d6b656;" vertex="1" parent="1">
          <mxGeometry x="80" y="460" width="120" height="60" as="geometry" />
        </mxCell>
        <mxCell id="5ZYNLyedGt1rYarvoSBz-6" value="" style="endArrow=classic;html=1;rounded=0;entryX=0.5;entryY=0;entryDx=0;entryDy=0;" edge="1" parent="1" source="5ZYNLyedGt1rYarvoSBz-1" target="5ZYNLyedGt1rYarvoSBz-5">
          <mxGeometry width="50" height="50" relative="1" as="geometry">
            <mxPoint x="120" y="160" as="sourcePoint" />
            <mxPoint x="420" y="240" as="targetPoint" />
          </mxGeometry>
        </mxCell>
        <mxCell id="5ZYNLyedGt1rYarvoSBz-7" value="" style="endArrow=classic;html=1;rounded=0;exitX=1;exitY=0.5;exitDx=0;exitDy=0;entryX=0;entryY=0.5;entryDx=0;entryDy=0;" edge="1" parent="1" source="5ZYNLyedGt1rYarvoSBz-5" target="5ZYNLyedGt1rYarvoSBz-14">
          <mxGeometry width="50" height="50" relative="1" as="geometry">
            <mxPoint x="370" y="290" as="sourcePoint" />
            <mxPoint x="120" y="310" as="targetPoint" />
          </mxGeometry>
        </mxCell>
        <mxCell id="5ZYNLyedGt1rYarvoSBz-10" value="&lt;b&gt;&lt;span style=&quot;white-space: pre;&quot;&gt;&#x9;&lt;/span&gt;2 - Data LakeHouse (Minio)&lt;/b&gt;" style="rounded=0;whiteSpace=wrap;html=1;verticalAlign=top;fillColor=#dae8fc;strokeColor=#6c8ebf;align=left;" vertex="1" parent="1">
          <mxGeometry x="230" y="360" width="620" height="390" as="geometry" />
        </mxCell>
        <mxCell id="5ZYNLyedGt1rYarvoSBz-14" value="&lt;b&gt;Raw&lt;/b&gt;&lt;br&gt;&lt;br&gt;&lt;b&gt;Dados Brutos&lt;/b&gt;&lt;br&gt;&lt;br&gt;&lt;div&gt;JSON&lt;br&gt;&lt;br&gt;&lt;b&gt;Partição&lt;/b&gt;&lt;br&gt;TIPO-AA-MM-DD-HH&lt;/div&gt;" style="rounded=0;whiteSpace=wrap;html=1;verticalAlign=top;" vertex="1" parent="1">
          <mxGeometry x="270" y="410" width="120" height="160" as="geometry" />
        </mxCell>
        <mxCell id="5ZYNLyedGt1rYarvoSBz-44" style="edgeStyle=orthogonalEdgeStyle;rounded=0;orthogonalLoop=1;jettySize=auto;html=1;exitX=0.5;exitY=0;exitDx=0;exitDy=0;entryX=0.5;entryY=1;entryDx=0;entryDy=0;" edge="1" parent="1" source="5ZYNLyedGt1rYarvoSBz-15" target="5ZYNLyedGt1rYarvoSBz-36">
          <mxGeometry relative="1" as="geometry" />
        </mxCell>
        <mxCell id="5ZYNLyedGt1rYarvoSBz-15" value="&lt;b&gt;Trusted&lt;/b&gt;&lt;br&gt;&lt;br&gt;&lt;div&gt;Tratados&lt;/div&gt;&lt;div&gt;Consistentes&lt;/div&gt;&lt;div&gt;Sem Duplicidade&lt;br&gt;Confiável&lt;br&gt;Padronizados&lt;/div&gt;" style="rounded=0;whiteSpace=wrap;html=1;verticalAlign=top;" vertex="1" parent="1">
          <mxGeometry x="450" y="410" width="180" height="160" as="geometry" />
        </mxCell>
        <mxCell id="5ZYNLyedGt1rYarvoSBz-17" value="&lt;b&gt;4 - Spark&lt;/b&gt;&lt;div&gt;&lt;br&gt;&lt;/div&gt;&lt;div&gt;Biblioteca para LakeHouse&lt;/div&gt;&lt;div&gt;(Delta)&lt;/div&gt;" style="rounded=0;whiteSpace=wrap;html=1;fillColor=#fff2cc;strokeColor=#d6b656;" vertex="1" parent="1">
          <mxGeometry x="350" y="620" width="140" height="90" as="geometry" />
        </mxCell>
        <mxCell id="5ZYNLyedGt1rYarvoSBz-18" value="" style="endArrow=classic;html=1;rounded=0;exitX=0.5;exitY=1;exitDx=0;exitDy=0;entryX=0;entryY=0.5;entryDx=0;entryDy=0;" edge="1" parent="1" source="5ZYNLyedGt1rYarvoSBz-14" target="5ZYNLyedGt1rYarvoSBz-17">
          <mxGeometry width="50" height="50" relative="1" as="geometry">
            <mxPoint x="530" y="510" as="sourcePoint" />
            <mxPoint x="580" y="460" as="targetPoint" />
            <Array as="points">
              <mxPoint x="330" y="665" />
            </Array>
          </mxGeometry>
        </mxCell>
        <mxCell id="5ZYNLyedGt1rYarvoSBz-19" value="" style="endArrow=classic;html=1;rounded=0;exitX=1;exitY=0.5;exitDx=0;exitDy=0;" edge="1" parent="1" source="5ZYNLyedGt1rYarvoSBz-17">
          <mxGeometry width="50" height="50" relative="1" as="geometry">
            <mxPoint x="530" y="510" as="sourcePoint" />
            <mxPoint x="510" y="570" as="targetPoint" />
            <Array as="points">
              <mxPoint x="510" y="665" />
            </Array>
          </mxGeometry>
        </mxCell>
        <mxCell id="5ZYNLyedGt1rYarvoSBz-35" style="edgeStyle=orthogonalEdgeStyle;rounded=0;orthogonalLoop=1;jettySize=auto;html=1;exitX=1;exitY=0.5;exitDx=0;exitDy=0;entryX=0;entryY=0.5;entryDx=0;entryDy=0;" edge="1" parent="1" source="5ZYNLyedGt1rYarvoSBz-36" target="5ZYNLyedGt1rYarvoSBz-34">
          <mxGeometry relative="1" as="geometry" />
        </mxCell>
        <mxCell id="5ZYNLyedGt1rYarvoSBz-45" style="edgeStyle=orthogonalEdgeStyle;rounded=0;orthogonalLoop=1;jettySize=auto;html=1;exitX=0.5;exitY=0;exitDx=0;exitDy=0;entryX=0.5;entryY=1;entryDx=0;entryDy=0;" edge="1" parent="1" source="5ZYNLyedGt1rYarvoSBz-20" target="TK7ht8lrvhHF2ARj4NLx-1">
          <mxGeometry relative="1" as="geometry">
            <Array as="points">
              <mxPoint x="755" y="330" />
              <mxPoint x="540" y="330" />
            </Array>
          </mxGeometry>
        </mxCell>
        <mxCell id="5ZYNLyedGt1rYarvoSBz-20" value="&lt;b&gt;Refined&lt;/b&gt;&lt;br&gt;&lt;b&gt;Semantic&lt;br&gt;&lt;/b&gt;&lt;br&gt;Dados p/ Negócio&lt;br&gt;&lt;br&gt;Vel. Média&lt;br&gt;Tempo Médio&lt;br&gt;Alerta de Atraso&lt;br&gt;&lt;div&gt;&lt;br&gt;&lt;/div&gt;" style="rounded=0;whiteSpace=wrap;html=1;verticalAlign=top;" vertex="1" parent="1">
          <mxGeometry x="700" y="410" width="110" height="160" as="geometry" />
        </mxCell>
        <mxCell id="5ZYNLyedGt1rYarvoSBz-21" value="&lt;b&gt;Spark&lt;/b&gt;&lt;div&gt;&lt;br&gt;&lt;/div&gt;&lt;div&gt;Biblioteca para LakeHouse&lt;/div&gt;&lt;div&gt;(Delta)&lt;/div&gt;" style="rounded=0;whiteSpace=wrap;html=1;fillColor=#fff2cc;strokeColor=#d6b656;" vertex="1" parent="1">
          <mxGeometry x="590" y="620" width="140" height="90" as="geometry" />
        </mxCell>
        <mxCell id="5ZYNLyedGt1rYarvoSBz-22" value="" style="endArrow=classic;html=1;rounded=0;entryX=0;entryY=0.5;entryDx=0;entryDy=0;exitX=0.617;exitY=1;exitDx=0;exitDy=0;exitPerimeter=0;" edge="1" parent="1" source="5ZYNLyedGt1rYarvoSBz-15" target="5ZYNLyedGt1rYarvoSBz-21">
          <mxGeometry width="50" height="50" relative="1" as="geometry">
            <mxPoint x="561" y="580" as="sourcePoint" />
            <mxPoint x="800" y="660" as="targetPoint" />
            <Array as="points">
              <mxPoint x="561" y="665" />
            </Array>
          </mxGeometry>
        </mxCell>
        <mxCell id="5ZYNLyedGt1rYarvoSBz-23" value="" style="endArrow=classic;html=1;rounded=0;exitX=1;exitY=0.5;exitDx=0;exitDy=0;entryX=0.5;entryY=1;entryDx=0;entryDy=0;" edge="1" parent="1" source="5ZYNLyedGt1rYarvoSBz-21" target="5ZYNLyedGt1rYarvoSBz-20">
          <mxGeometry width="50" height="50" relative="1" as="geometry">
            <mxPoint x="730" y="680" as="sourcePoint" />
            <mxPoint x="780" y="630" as="targetPoint" />
            <Array as="points">
              <mxPoint x="755" y="665" />
            </Array>
          </mxGeometry>
        </mxCell>
        <mxCell id="5ZYNLyedGt1rYarvoSBz-1" value="API" style="ellipse;shape=cloud;whiteSpace=wrap;html=1;fontStyle=1;fillColor=#dae8fc;strokeColor=#6c8ebf;" vertex="1" parent="1">
          <mxGeometry x="80" y="260" width="120" height="80" as="geometry" />
        </mxCell>
        <mxCell id="5ZYNLyedGt1rYarvoSBz-34" value="&lt;b&gt;6 - DataVis&lt;br&gt;&lt;/b&gt;&lt;br&gt;Metabase" style="rounded=0;whiteSpace=wrap;html=1;" vertex="1" parent="1">
          <mxGeometry x="690" y="180" width="120" height="60" as="geometry" />
        </mxCell>
        <mxCell id="5ZYNLyedGt1rYarvoSBz-36" value="&lt;b&gt;5 - Presto&lt;/b&gt;" style="rounded=0;whiteSpace=wrap;html=1;" vertex="1" parent="1">
          <mxGeometry x="480" y="180" width="120" height="60" as="geometry" />
        </mxCell>
        <mxCell id="5ZYNLyedGt1rYarvoSBz-40" value="&lt;b&gt;3 - Orquestração&lt;/b&gt;&lt;br&gt;&lt;br&gt;Airflow" style="rounded=0;whiteSpace=wrap;html=1;" vertex="1" parent="1">
          <mxGeometry x="230" y="770" width="620" height="60" as="geometry" />
        </mxCell>
        <mxCell id="5ZYNLyedGt1rYarvoSBz-46" value="&lt;h1 style=&quot;margin-top: 0px;&quot;&gt;1 - Nifi&lt;/h1&gt;&lt;p&gt;Usaremos o NIFI para realizar as requisições dos dados a partir da API, e ingerir os mesmos para a camada RAW.&lt;/p&gt;" style="text;html=1;whiteSpace=wrap;overflow=hidden;rounded=0;fillColor=#f5f5f5;fontColor=#333333;strokeColor=#666666;" vertex="1" parent="1">
          <mxGeometry x="-40" y="880" width="180" height="120" as="geometry" />
        </mxCell>
        <mxCell id="5ZYNLyedGt1rYarvoSBz-47" value="&lt;h1 style=&quot;margin-top: 0px;&quot;&gt;2 - Minio&lt;/h1&gt;&lt;p&gt;Armazenar os dados extraídos da camada RAW e os processados.&lt;/p&gt;" style="text;html=1;whiteSpace=wrap;overflow=hidden;rounded=0;fillColor=#f5f5f5;fontColor=#333333;strokeColor=#666666;" vertex="1" parent="1">
          <mxGeometry x="165" y="880" width="180" height="120" as="geometry" />
        </mxCell>
        <mxCell id="5ZYNLyedGt1rYarvoSBz-48" value="&lt;h1 style=&quot;margin-top: 0px;&quot;&gt;3 - Airflow&lt;/h1&gt;&lt;p&gt;Agendamento e orquestração do pipeline.&lt;/p&gt;" style="text;html=1;whiteSpace=wrap;overflow=hidden;rounded=0;fillColor=#f5f5f5;fontColor=#333333;strokeColor=#666666;" vertex="1" parent="1">
          <mxGeometry x="375" y="880" width="180" height="120" as="geometry" />
        </mxCell>
        <mxCell id="5ZYNLyedGt1rYarvoSBz-49" value="&lt;h1 style=&quot;margin-top: 0px;&quot;&gt;4 - Spark&lt;/h1&gt;&lt;p&gt;Processamento e movimentação dos dados.&lt;/p&gt;" style="text;html=1;whiteSpace=wrap;overflow=hidden;rounded=1;fillColor=#f5f5f5;fontColor=#333333;strokeColor=#666666;" vertex="1" parent="1">
          <mxGeometry x="585" y="880" width="180" height="120" as="geometry" />
        </mxCell>
        <mxCell id="5ZYNLyedGt1rYarvoSBz-50" value="&lt;h1 style=&quot;margin-top: 0px;&quot;&gt;5 - Presto&lt;/h1&gt;&lt;p&gt;Consultas AD-HOC e conexão com o Metabase.&lt;/p&gt;" style="text;html=1;whiteSpace=wrap;overflow=hidden;rounded=1;fillColor=#f5f5f5;fontColor=#333333;strokeColor=#666666;" vertex="1" parent="1">
          <mxGeometry x="795" y="880" width="180" height="120" as="geometry" />
        </mxCell>
        <mxCell id="5ZYNLyedGt1rYarvoSBz-51" value="&lt;h1 style=&quot;margin-top: 0px;&quot;&gt;6 - Metabase&lt;/h1&gt;&lt;p&gt;Vizualização dos dados.&lt;/p&gt;" style="text;html=1;whiteSpace=wrap;overflow=hidden;rounded=1;fillColor=#f5f5f5;fontColor=#333333;strokeColor=#666666;" vertex="1" parent="1">
          <mxGeometry x="1005" y="880" width="180" height="120" as="geometry" />
        </mxCell>
        <mxCell id="TK7ht8lrvhHF2ARj4NLx-1" value="Hive" style="rounded=0;whiteSpace=wrap;html=1;" vertex="1" parent="1">
          <mxGeometry x="480" y="250" width="120" height="60" as="geometry" />
        </mxCell>
      </root>
    </mxGraphModel>
  </diagram>
</mxfile>
